<?xml version="1.0" encoding="UTF-8"?>
<svg width="208px" height="17px" viewBox="0 0 208 17" version="1.1" xmlns="http://www.w3.org/2000/svg" xmlns:xlink="http://www.w3.org/1999/xlink">
    <!-- Generator: Sketch 59 (86127) - https://sketch.com -->
    <title>BLOCK SHOP</title>
    <desc>Created with Sketch.</desc>
    <g id="Page-1" stroke="none" stroke-width="1" fill="none" fill-rule="evenodd">
        <g id="Landing-Page" transform="translate(-152.000000, -69.000000)" fill="#262930">
            <path d="M170.377086,81.1092669 C170.377086,81.7362871 170.294994,82.2810028 170.130807,82.7434302 C169.966621,83.2058575 169.737936,83.6036175 169.444745,83.936722 C169.151555,84.2698265 168.799731,84.5402249 168.389265,84.7479253 C167.978798,84.9556258 167.525337,85.1202161 167.028868,85.2417012 C166.532399,85.3631864 166.002709,85.447441 165.439783,85.4944675 C164.876858,85.541494 164.294395,85.5650069 163.692377,85.5650069 L152,85.5650069 L152,69.4114799 L163.481281,69.4114799 C163.942567,69.4114799 164.405801,69.431074 164.870997,69.4702628 C165.336192,69.5094516 165.779881,69.5819497 166.202075,69.6877593 C166.624269,69.793569 167.017138,69.9405246 167.380695,70.1286307 C167.744251,70.3167368 168.060892,70.5636223 168.330627,70.8692946 C168.600362,71.174967 168.811456,71.5433358 168.963915,71.9744122 C169.116374,72.4054886 169.192603,72.9149348 169.192603,73.5027663 C169.192603,74.5530251 168.934599,75.3857738 168.418584,76.0010373 C167.902568,76.6163009 167.089466,77.0258173 165.979251,77.2295989 C166.761092,77.2844632 167.431511,77.4039871 167.990528,77.5881743 C168.549544,77.7723615 169.00496,78.0231658 169.356788,78.3405947 C169.708617,78.6580237 169.966621,79.0459866 170.130807,79.5044952 C170.294994,79.9630037 170.377086,80.4979223 170.377086,81.1092669 Z M164.947226,74.1964039 C164.947226,73.9926223 164.915953,73.7986408 164.853406,73.6144537 C164.790858,73.4302665 164.677493,73.2676356 164.513306,73.126556 C164.34912,72.9854765 164.126298,72.8718308 163.844835,72.7856155 C163.563373,72.6994002 163.203731,72.6562932 162.7659,72.6562932 L156.350925,72.6562932 L156.350925,75.6894882 L162.7659,75.6894882 C163.203731,75.6894882 163.563373,75.6503001 163.844835,75.5719225 C164.126298,75.493545 164.34912,75.387737 164.513306,75.2544952 C164.677493,75.1212534 164.790858,74.9625413 164.853406,74.7783541 C164.915953,74.5941669 164.947226,74.4001854 164.947226,74.1964039 Z M165.955796,80.6037344 C165.955796,80.2353601 165.89325,79.9394894 165.768155,79.7161134 C165.643061,79.4927375 165.447603,79.3203095 165.181777,79.1988243 C164.915951,79.0773392 164.571946,78.9970034 164.149752,78.9578147 C163.727558,78.9186259 163.223278,78.8990318 162.636897,78.8990318 L156.350925,78.8990318 L156.350925,82.3201936 L162.636897,82.3201936 C163.223278,82.3201936 163.727558,82.3005996 164.149752,82.2614108 C164.571946,82.222222 164.915951,82.1399269 165.181777,82.0145228 C165.447603,81.8891188 165.643061,81.7147314 165.768155,81.4913555 C165.89325,81.2679795 165.955796,80.9721088 165.955796,80.6037344 Z M174.341001,85.5650069 L174.341001,69.4114799 L178.691926,69.4114799 L178.691926,82.0262794 L190.454668,82.0262794 L190.454668,85.5650069 L174.341001,85.5650069 Z M214.789355,77.5 C214.789355,78.8872822 214.53526,80.1119126 214.027064,81.1739281 C213.518867,82.2359435 212.791765,83.1235557 211.845737,83.8367911 C210.89971,84.5500266 209.752375,85.088864 208.403699,85.4533195 C207.055023,85.817775 205.540228,86 203.859269,86 C202.178311,86 200.659607,85.817775 199.303112,85.4533195 C197.946618,85.088864 196.791465,84.5500266 195.837618,83.8367911 C194.883772,83.1235557 194.148852,82.2359435 193.632837,81.1739281 C193.116822,80.1119126 192.858818,78.8872822 192.858818,77.5 C192.858818,76.1127178 193.116822,74.8880874 193.632837,73.8260719 C194.148852,72.7640565 194.883772,71.8764443 195.837618,71.1632089 C196.791465,70.4499734 197.946618,69.911136 199.303112,69.5466805 C200.659607,69.182225 202.178311,69 203.859269,69 C205.540228,69 207.055023,69.182225 208.403699,69.5466805 C209.752375,69.911136 210.89971,70.4499734 211.845737,71.1632089 C212.791765,71.8764443 213.518867,72.7640565 214.027064,73.8260719 C214.53526,74.8880874 214.789355,76.1127178 214.789355,77.5 Z M210.39152,77.5 C210.39152,76.8964931 210.295746,76.2949546 210.104195,75.6953665 C209.912644,75.0957785 209.572548,74.5569411 209.083897,74.0788382 C208.595246,73.6007353 207.928737,73.2127724 207.084348,72.9149378 C206.23996,72.6171032 205.164944,72.4681881 203.859269,72.4681881 C202.983607,72.4681881 202.213505,72.5367674 201.54894,72.6739281 C200.884375,72.8110887 200.30973,73.0011514 199.824989,73.2441217 C199.340247,73.487092 198.933696,73.7712063 198.605323,74.096473 C198.276949,74.4217398 198.015036,74.7705145 197.819576,75.1428077 C197.624116,75.515101 197.485341,75.9030639 197.403248,76.3067082 C197.321154,76.7103524 197.280108,77.1081124 197.280108,77.5 C197.280108,77.8997254 197.321154,78.3033636 197.403248,78.7109267 C197.485341,79.1184898 197.624116,79.5084122 197.819576,79.8807054 C198.015036,80.2529986 198.276949,80.599814 198.605323,80.9211618 C198.933696,81.2425097 199.340247,81.5227051 199.824989,81.7617566 C200.30973,82.000808 200.884375,82.1889113 201.54894,82.3260719 C202.213505,82.4632326 202.983607,82.5318119 203.859269,82.5318119 C205.164944,82.5318119 206.23996,82.3828968 207.084348,82.0850622 C207.928737,81.7872276 208.595246,81.3992647 209.083897,80.9211618 C209.572548,80.4430589 209.912644,79.9042215 210.104195,79.3046335 C210.295746,78.7050454 210.39152,78.1035069 210.39152,77.5 Z M236.508796,84.4598893 C235.94587,84.6950219 235.379044,84.9066381 234.8083,85.0947441 C234.237555,85.2828502 233.647274,85.4454811 233.037438,85.5826418 C232.427602,85.7198024 231.784547,85.8236511 231.108254,85.8941909 C230.431962,85.9647306 229.706815,86 228.932792,86 C227.290925,86 225.78004,85.8236532 224.40009,85.4709544 C223.02014,85.1182555 221.83176,84.5872557 220.834912,83.8779391 C219.838064,83.1686225 219.062099,82.2829698 218.506991,81.2209544 C217.951884,80.1589389 217.674335,78.9186332 217.674335,77.5 C217.674335,76.0813668 217.951884,74.8410611 218.506991,73.7790456 C219.062099,72.7170302 219.838064,71.8313775 220.834912,71.1220609 C221.83176,70.4127443 223.02014,69.8817445 224.40009,69.5290456 C225.78004,69.1763468 227.290925,69 228.932792,69 C229.706815,69 230.431962,69.0352694 231.108254,69.1058091 C231.784547,69.1763489 232.427602,69.2801976 233.037438,69.4173582 C233.647274,69.5545189 234.237555,69.7171498 234.8083,69.9052559 C235.379044,70.0933619 235.94587,70.3049781 236.508796,70.5401107 L236.508796,74.466805 C236.063146,74.2238347 235.594048,73.9828274 235.101488,73.7437759 C234.608929,73.5047245 234.065557,73.2891895 233.471358,73.0971646 C232.877158,72.9051397 232.224331,72.748387 231.512855,72.6269018 C230.80138,72.5054166 230.000004,72.444675 229.108705,72.444675 C227.740483,72.444675 226.604876,72.5857524 225.701849,72.8679115 C224.798823,73.1500706 224.077585,73.526277 223.538115,73.9965422 C222.998644,74.4668073 222.619457,75.0056447 222.400541,75.6130705 C222.181626,76.2204964 222.07217,76.8494665 222.07217,77.5 C222.07217,77.9310764 222.119079,78.3562681 222.2129,78.7755878 C222.306721,79.1949076 222.463087,79.5907081 222.682003,79.9630014 C222.900918,80.3352946 223.186286,80.6781911 223.538115,80.9917012 C223.889943,81.3052113 224.327768,81.5756097 224.851601,81.8029046 C225.375435,82.0301994 225.987216,82.2085056 226.686964,82.3378285 C227.386712,82.4671514 228.193951,82.5318119 229.108705,82.5318119 C230.000004,82.5318119 230.80138,82.474989 231.512855,82.3613416 C232.224331,82.2476942 232.877158,82.0968198 233.471358,81.9087137 C234.065557,81.7206076 234.608929,81.5070321 235.101488,81.2679806 C235.594048,81.0289292 236.063146,80.7840031 236.508796,80.533195 L236.508796,84.4598893 Z M244.940911,75.5719225 L253.853857,69.4114799 L259.682454,69.4114799 L248.834461,77.1590595 L260.409562,85.5650069 L254.064953,85.5650069 L244.940911,78.8520055 L244.940911,85.5650069 L240.566531,85.5650069 L240.566531,69.4114799 L244.940911,69.4114799 L244.940911,75.5719225 Z M286.8083,73.9612725 C286.503381,73.8123552 286.100739,73.643846 285.600361,73.45574 C285.099982,73.2676339 284.533156,73.0893277 283.899865,72.920816 C283.266573,72.7523044 282.578563,72.6112269 281.835814,72.4975795 C281.093065,72.3839321 280.330781,72.3271093 279.54894,72.3271093 C278.923467,72.3271093 278.389868,72.3467034 277.948128,72.3858921 C277.506388,72.4250809 277.135019,72.4760255 276.83401,72.5387275 C276.533001,72.6014295 276.294543,72.6739277 276.118629,72.7562241 C275.942715,72.8385205 275.807849,72.922775 275.714028,73.0089903 C275.620207,73.0952056 275.559615,73.1814196 275.532251,73.2676349 C275.504886,73.3538501 275.491204,73.4322265 275.491204,73.5027663 C275.491204,73.7378988 275.608479,73.9436367 275.843031,74.1199862 C276.077583,74.2963356 276.398134,74.4530883 276.804691,74.590249 C277.211248,74.7274096 277.684255,74.8567306 278.223726,74.9782158 C278.763196,75.0997009 279.335886,75.2251031 279.941813,75.354426 C280.54774,75.4837489 281.173204,75.6248263 281.818223,75.7776625 C282.463242,75.9304987 283.088705,76.1088049 283.694632,76.3125864 C284.300559,76.516368 284.873249,76.7534565 285.41272,77.0238589 C285.95219,77.2942614 286.425197,77.6097262 286.831755,77.9702628 C287.238312,78.3307994 287.558862,78.7461941 287.793415,79.2164592 C288.027967,79.6867243 288.145241,80.2236023 288.145241,80.8271093 C288.145241,81.6030468 288.008421,82.2692457 287.734777,82.8257261 C287.461132,83.3822066 287.095627,83.8524647 286.63825,84.2365145 C286.180873,84.6205644 285.651183,84.9281916 285.049166,85.1594053 C284.447148,85.390619 283.81582,85.5689251 283.155165,85.6943292 C282.494509,85.8197332 281.826045,85.9020284 281.149752,85.9412172 C280.473459,85.9804059 279.830404,86 279.220568,86 C277.625612,86 276.149909,85.8687196 274.793415,85.6061549 C273.43692,85.3435902 272.238766,85.0163689 271.198917,84.6244813 L271.198917,80.7683264 C272.27004,81.3639956 273.491649,81.8303349 274.86378,82.1673582 C276.235911,82.5043816 277.703796,82.6728907 279.267479,82.6728907 C280.190051,82.6728907 280.942562,82.6239055 281.525034,82.5259336 C282.107506,82.4279617 282.562921,82.3025595 282.891295,82.1497234 C283.219668,81.9968872 283.442489,81.8303375 283.559765,81.6500692 C283.677042,81.4698009 283.735679,81.2973729 283.735679,81.1327801 C283.735679,80.8741343 283.618404,80.6488023 283.383852,80.4567773 C283.1493,80.2647524 282.82875,80.0962432 282.422192,79.9512448 C282.015635,79.8062464 281.542628,79.6730066 281.003157,79.5515214 C280.463687,79.4300363 279.890997,79.3085529 279.28507,79.1870678 C278.679143,79.0655826 278.055634,78.9343022 277.414524,78.7932227 C276.773414,78.6521431 276.149905,78.4855934 275.543978,78.2935685 C274.938051,78.1015435 274.365361,77.8781709 273.825891,77.623444 C273.28642,77.368717 272.813414,77.0669681 272.406856,76.7181881 C272.000299,76.3694081 271.679749,75.9657699 271.445196,75.5072614 C271.210644,75.0487529 271.093369,74.5177531 271.093369,73.9142462 C271.093369,73.2010107 271.218462,72.5857564 271.468651,72.0684647 C271.718841,71.5511731 272.056982,71.1103061 272.483085,70.7458506 C272.909189,70.3813951 273.401741,70.0855244 273.960758,69.8582296 C274.519774,69.6309348 275.108101,69.454588 275.725756,69.329184 C276.34341,69.2037799 276.968874,69.1175659 277.602165,69.0705394 C278.235456,69.0235129 278.837465,69 279.408209,69 C280.033682,69 280.676737,69.0313505 281.337393,69.0940526 C281.998049,69.1567546 282.648922,69.244928 283.290032,69.3585754 C283.931141,69.4722228 284.550741,69.6035032 285.14885,69.7524205 C285.746958,69.9013378 286.300103,70.0580905 286.8083,70.2226833 L286.8083,73.9612725 Z M307.683356,85.5650069 L307.683356,78.8284924 L296.612539,78.8284924 L296.612539,85.5650069 L292.261615,85.5650069 L292.261615,69.4114799 L296.612539,69.4114799 L296.612539,75.2897649 L307.683356,75.2897649 L307.683356,69.4114799 L312.034281,69.4114799 L312.034281,85.5650069 L307.683356,85.5650069 Z M337.928733,77.5 C337.928733,78.8872822 337.674638,80.1119126 337.166441,81.1739281 C336.658244,82.2359435 335.931143,83.1235557 334.985115,83.8367911 C334.039087,84.5500266 332.891752,85.088864 331.543076,85.4533195 C330.1944,85.817775 328.679605,86 326.998647,86 C325.317688,86 323.798984,85.817775 322.44249,85.4533195 C321.085995,85.088864 319.930842,84.5500266 318.976996,83.8367911 C318.02315,83.1235557 317.28823,82.2359435 316.772215,81.1739281 C316.256199,80.1119126 315.998196,78.8872822 315.998196,77.5 C315.998196,76.1127178 316.256199,74.8880874 316.772215,73.8260719 C317.28823,72.7640565 318.02315,71.8764443 318.976996,71.1632089 C319.930842,70.4499734 321.085995,69.911136 322.44249,69.5466805 C323.798984,69.182225 325.317688,69 326.998647,69 C328.679605,69 330.1944,69.182225 331.543076,69.5466805 C332.891752,69.911136 334.039087,70.4499734 334.985115,71.1632089 C335.931143,71.8764443 336.658244,72.7640565 337.166441,73.8260719 C337.674638,74.8880874 337.928733,76.1127178 337.928733,77.5 Z M333.530898,77.5 C333.530898,76.8964931 333.435123,76.2949546 333.243572,75.6953665 C333.052021,75.0957785 332.711925,74.5569411 332.223275,74.0788382 C331.734624,73.6007353 331.068114,73.2127724 330.223726,72.9149378 C329.379337,72.6171032 328.304322,72.4681881 326.998647,72.4681881 C326.122985,72.4681881 325.352883,72.5367674 324.688318,72.6739281 C324.023753,72.8110887 323.449108,73.0011514 322.964366,73.2441217 C322.479625,73.487092 322.073073,73.7712063 321.7447,74.096473 C321.416327,74.4217398 321.154414,74.7705145 320.958954,75.1428077 C320.763493,75.515101 320.624718,75.9030639 320.542625,76.3067082 C320.460532,76.7103524 320.419486,77.1081124 320.419486,77.5 C320.419486,77.8997254 320.460532,78.3033636 320.542625,78.7109267 C320.624718,79.1184898 320.763493,79.5084122 320.958954,79.8807054 C321.154414,80.2529986 321.416327,80.599814 321.7447,80.9211618 C322.073073,81.2425097 322.479625,81.5227051 322.964366,81.7617566 C323.449108,82.000808 324.023753,82.1889113 324.688318,82.3260719 C325.352883,82.4632326 326.122985,82.5318119 326.998647,82.5318119 C328.304322,82.5318119 329.379337,82.3828968 330.223726,82.0850622 C331.068114,81.7872276 331.734624,81.3992647 332.223275,80.9211618 C332.711925,80.4430589 333.052021,79.9042215 333.243572,79.3046335 C333.435123,78.7050454 333.530898,78.1035069 333.530898,77.5 Z M360,74.9253112 C360,75.7325997 359.882726,76.4752156 359.648173,77.1531812 C359.413621,77.8311468 359.036388,78.4150506 358.516464,78.9049101 C357.996539,79.3947696 357.322211,79.7768543 356.49346,80.0511757 C355.664708,80.325497 354.656148,80.4626556 353.467749,80.4626556 L346.243572,80.4626556 L346.243572,85.5650069 L341.892648,85.5650069 L341.892648,69.4114799 L353.467749,69.4114799 C354.656148,69.4114799 355.664708,69.5466791 356.49346,69.8170816 C357.322211,70.0874841 357.996539,70.4676094 358.516464,70.9574689 C359.036388,71.4473284 359.413621,72.0292728 359.648173,72.7033195 C359.882726,73.3773662 360,74.1180227 360,74.9253112 Z M355.602165,74.9958506 C355.602165,74.6196385 355.549392,74.2963361 355.443843,74.0259336 C355.338294,73.7555312 355.164337,73.534118 354.921967,73.3616874 C354.679596,73.1892569 354.362955,73.0618953 353.972034,72.9795989 C353.581114,72.8973025 353.100289,72.8561549 352.529544,72.8561549 L346.243572,72.8561549 L346.243572,77.0179806 L352.529544,77.0179806 C353.100289,77.0179806 353.581114,76.9846707 353.972034,76.9180498 C354.362955,76.8514289 354.679596,76.7377832 354.921967,76.5771093 C355.164337,76.4164353 355.338294,76.2067786 355.443843,75.9481328 C355.549392,75.689487 355.602165,75.3720627 355.602165,74.9958506 Z" id="BLOCK-SHOP"></path>
        </g>
    </g>
</svg>