<?xml version="1.0" encoding="UTF-8"?>
<svg width="28px" height="28px" viewBox="0 0 28 28" version="1.1" xmlns="http://www.w3.org/2000/svg" xmlns:xlink="http://www.w3.org/1999/xlink">
    <!-- Generator: Sketch 59 (86127) - https://sketch.com -->
    <title>instagram</title>
    <desc>Created with Sketch.</desc>
    <g id="Page-1" stroke="none" stroke-width="1" fill="none" fill-rule="evenodd">
        <g id="Landing-Page" transform="translate(-1225.000000, -2135.000000)">
            <g id="Footer" transform="translate(150.000000, 2093.000000)">
                <g id="instagram" transform="translate(1075.000000, 42.000000)">
                    <rect id="Rectangle" x="0" y="0" width="28" height="28"></rect>
                    <circle id="Oval" stroke="#5B6274" cx="14" cy="14" r="13.5"></circle>
                    <path d="M17.9039383,7.63636364 L10.0960617,7.63636364 C8.7401223,7.63636364 7.63636364,8.73937398 7.63636364,10.0960617 L7.63636364,17.9039383 C7.63636364,19.260626 8.7401223,20.3636364 10.0960617,20.3636364 L17.9039383,20.3636364 C19.2598777,20.3636364 20.3636364,19.260626 20.3636364,17.9039383 L20.3636364,10.0960617 C20.3636364,8.73937398 19.2598777,7.63636364 17.9039383,7.63636364 L17.9039383,7.63636364 Z M18.6095955,9.10380142 L18.8909604,9.1023048 L18.8909604,11.2596853 L16.7403147,11.2664201 L16.7328316,9.1090396 L18.6095955,9.10380142 L18.6095955,9.10380142 Z M12.1838493,12.6934491 C12.5909305,12.1292226 13.2524374,11.759557 14,11.759557 C14.7475626,11.759557 15.4090695,12.1292226 15.8161507,12.6934491 C16.0818011,13.0616181 16.240443,13.5121013 16.240443,14 C16.240443,15.2347131 15.2354614,16.2396947 14,16.2396947 C12.7652869,16.2396947 11.7603053,15.2347131 11.7603053,14 C11.7603053,13.5121013 11.9189472,13.0616181 12.1838493,12.6934491 L12.1838493,12.6934491 Z M19.1236851,17.9039383 C19.1236851,18.5766698 18.5766698,19.1236851 17.9039383,19.1236851 L10.0960617,19.1236851 C9.4233302,19.1236851 8.87631489,18.5766698 8.87631489,17.9039383 L8.87631489,12.6934491 L10.7770247,12.6934491 C10.6123963,13.097537 10.5203541,13.5382921 10.5203541,14 C10.5203541,15.9186693 12.0813307,17.4803943 14,17.4803943 C15.9194176,17.4803943 17.4803943,15.9186693 17.4803943,14 C17.4803943,13.5382921 17.3868554,13.097537 17.2237236,12.6934491 L19.1236851,12.6934491 L19.1236851,17.9039383 L19.1236851,17.9039383 Z" id="Shape" fill="#5B6274"></path>
                </g>
            </g>
        </g>
    </g>
</svg>