<?xml version="1.0" encoding="UTF-8"?>
<svg width="28px" height="28px" viewBox="0 0 28 28" version="1.1" xmlns="http://www.w3.org/2000/svg" xmlns:xlink="http://www.w3.org/1999/xlink">
    <!-- Generator: Sketch 59 (86127) - https://sketch.com -->
    <title>pinterest-light</title>
    <desc>Created with Sketch.</desc>
    <g id="Page-1" stroke="none" stroke-width="1" fill="none" fill-rule="evenodd">
        <g id="Landing-Page" transform="translate(-1267.000000, -2135.000000)">
            <g id="Footer" transform="translate(150.000000, 2093.000000)">
                <g id="pinterest-light" transform="translate(1117.000000, 42.000000)">
                    <rect id="Rectangle" x="0" y="0" width="28" height="28"></rect>
                    <circle id="Oval" stroke="#5B6274" cx="14" cy="14" r="13.5"></circle>
                    <path d="M7.63636364,12.936752 C7.63636364,14.5715779 8.25168896,16.0257427 9.57053969,16.5677259 C9.78688932,16.65649 9.98041069,16.5708587 10.0431884,16.3296292 C10.0867696,16.163066 10.1900156,15.7422197 10.2356721,15.5667801 C10.2989687,15.3286835 10.2745839,15.2451408 10.0997402,15.0373283 C9.71996101,14.5856757 9.47663254,14.0013991 9.47663254,13.1732822 C9.47663254,10.7719522 11.2619061,8.62177235 14.1263337,8.62177235 C16.6623456,8.62177235 18.0553882,10.1814098 18.0553882,12.2637112 C18.0553882,15.0039113 16.8501599,17.3169993 15.0617734,17.3169993 C14.0734136,17.3169993 13.3340893,16.494626 13.5711919,15.4863703 C13.8549887,14.2823113 14.4044233,12.9827005 14.4044233,12.1138565 C14.4044233,11.3358653 13.9893641,10.6873652 13.1312291,10.6873652 C12.1215975,10.6873652 11.3096379,11.7384366 11.3096379,13.146653 C11.3096379,14.0442147 11.6110747,14.6504213 11.6110747,14.6504213 C11.6110747,14.6504213 10.5775772,19.05782 10.3965076,19.8295456 C10.0359249,21.3667309 10.3425499,23.2506185 10.3684911,23.4406781 C10.383537,23.5534607 10.5272512,23.5806121 10.5926231,23.495503 C10.6860114,23.3727996 11.8881267,21.8784299 12.2979977,20.3856265 C12.4131766,19.9626917 12.9615737,17.7733512 12.9615737,17.7733512 C13.2899893,18.4030542 14.2487761,18.9575688 15.2682654,18.9575688 C18.3044237,18.9575688 20.3636364,16.1724646 20.3636364,12.4443723 C20.3636364,9.62532884 17.991054,7 14.3852269,7 C9.89895531,7 7.63636364,10.237279 7.63636364,12.936752 Z" id="Shape" fill="#5B6274"></path>
                </g>
            </g>
        </g>
    </g>
</svg>